<svg width="16" height="16" viewBox="0 0 16 16" fill="none" xmlns="http://www.w3.org/2000/svg">
<path fill-rule="evenodd" clip-rule="evenodd" d="M5.99998 5.914L8.05998 3.854V3.146L5.91498 1L5.20798 1.707L5.25098 1.75L5.50098 2L6.50098 3H3.50098C2.83794 3 2.20205 3.26339 1.73321 3.73223C1.26437 4.20107 1.00098 4.83696 1.00098 5.5C1.00098 6.16304 1.26437 6.79893 1.73321 7.26777C2.20205 7.73661 2.83794 8 3.50098 8H3.99998V7H3.49998C3.30299 7 3.10794 6.9612 2.92595 6.88582C2.74396 6.81044 2.5786 6.69995 2.43932 6.56066C2.30003 6.42137 2.18954 6.25601 2.11416 6.07403C2.03878 5.89204 1.99998 5.69698 1.99998 5.5C1.99998 5.30302 2.03878 5.10796 2.11416 4.92597C2.18954 4.74399 2.30003 4.57863 2.43932 4.43934C2.5786 4.30005 2.74396 4.18956 2.92595 4.11418C3.10794 4.0388 3.30299 4 3.49998 4H6.49998L5.20698 5.293L5.91398 6L5.99998 5.914ZM11 2H8.32798L7.32798 1H12L12.71 1.29L15.71 4.29L16 5V14L15 15H5.99998L4.99998 14V6.5L5.99998 7.347V14H15V6H11V2ZM12 2V5H15L12 2Z" fill="#A18167"/>
</svg>
