<svg width="17" height="17" viewBox="0 0 17 17" fill="none" xmlns="http://www.w3.org/2000/svg">
<path d="M6.67856 16.3929V10.0179C6.67856 9.6153 6.83847 9.22922 7.12313 8.94457C7.40778 8.65992 7.79385 8.5 8.19642 8.5C8.59898 8.5 8.98505 8.65992 9.2697 8.94457C9.55436 9.22922 9.71427 9.6153 9.71427 10.0179V13.3571H12.1428C12.7869 13.3571 13.4047 13.613 13.8601 14.0685C14.3155 14.5239 14.5714 15.1416 14.5714 15.7857V16.3929" stroke="#F2E5D9" stroke-linecap="round" stroke-linejoin="round"/>
<path d="M4.11642 10.4549C3.3102 9.64813 2.76128 8.62039 2.53908 7.50165C2.31687 6.38291 2.43134 5.2234 2.86802 4.16972C3.3047 3.11603 4.04399 2.21546 4.99241 1.58187C5.94084 0.948279 7.05583 0.610107 8.19642 0.610107C9.33701 0.610107 10.452 0.948279 11.4004 1.58187C12.3489 2.21546 13.0881 3.11603 13.5248 4.16972C13.9615 5.2234 14.076 6.38291 13.8538 7.50165C13.6316 8.62039 13.0826 9.64813 12.2764 10.4549" stroke="#F2E5D9" stroke-linecap="round" stroke-linejoin="round"/>
</svg>
